<?xml version="1.0" standalone="no"?>
<!DOCTYPE svg PUBLIC "-//W3C//DTD SVG 20010904//EN"
 "http://www.w3.org/TR/2001/REC-SVG-20010904/DTD/svg10.dtd">
<svg version="1.0" xmlns="http://www.w3.org/2000/svg"
 width="722.000000pt" height="329.000000pt" viewBox="0 0 722.000000 329.000000"
 preserveAspectRatio="xMidYMid meet">

<g transform="translate(0.000000,329.000000) scale(0.100000,-0.100000)"
fill="#000000" stroke="none">
<path d="M435 3031 c-102 -39 -133 -61 -155 -106 -34 -71 -27 -133 78 -640 37
-175 38 -180 62 -180 23 0 25 3 22 43 -1 23 -22 131 -46 240 -77 347 -90 431
-74 489 18 66 99 114 134 79 17 -18 48 -27 96 -29 l33 -2 3 68 3 67 -43 -1
c-24 -1 -75 -13 -113 -28z"/>
<path d="M767 3053 c-11 -10 -8 -121 3 -128 17 -11 121 18 133 36 9 15 14 15
52 2 24 -8 53 -25 66 -39 22 -23 24 -34 22 -112 -1 -83 -19 -184 -92 -507 -45
-205 -44 -194 -15 -201 14 -4 27 -5 28 -3 5 5 42 178 93 434 47 229 51 362 15
413 -24 33 -106 82 -139 82 -10 0 -36 7 -58 15 -43 15 -97 19 -108 8z"/>
<path d="M1203 2315 c-110 -66 -109 -239 2 -302 117 -66 265 17 265 149 0 138
-149 223 -267 153z m173 -58 c31 -28 37 -41 42 -85 4 -50 3 -53 -36 -92 -34
-34 -46 -40 -82 -40 -121 0 -175 136 -86 217 29 27 44 33 81 33 37 0 52 -6 81
-33z"/>
<path d="M1241 2214 c-43 -54 -12 -124 54 -124 38 0 75 37 75 75 0 38 -37 75
-75 75 -24 0 -39 -7 -54 -26z"/>
<path d="M4330 1611 l0 -711 105 0 105 0 0 355 c0 195 3 355 8 355 6 -1 209
-300 372 -550 25 -38 48 -69 51 -70 3 0 100 141 215 313 l209 312 3 -358 2
-357 110 0 110 0 0 712 c-1 391 -5 707 -9 702 -5 -5 -149 -218 -320 -474 -171
-256 -315 -466 -319 -467 -4 -1 -33 37 -64 85 -31 48 -174 262 -317 475 l-261
389 0 -711z"/>
<path d="M2170 1580 l0 -680 217 0 c240 0 298 9 412 62 76 36 139 96 178 170
26 50 28 61 28 173 0 116 -1 123 -33 187 -19 40 -55 89 -88 122 l-56 55 26 34
c51 67 70 125 71 217 0 172 -84 275 -263 321 -62 16 -111 19 -284 19 l-208 0
0 -680z m496 459 c41 -21 51 -32 63 -67 26 -84 -7 -153 -109 -219 -56 -37
-193 -93 -228 -93 -9 0 -12 48 -12 206 l0 206 119 -4 c102 -3 125 -8 167 -29z
m86 -563 c49 -48 68 -97 68 -173 0 -57 -4 -75 -25 -106 -48 -70 -155 -107
-312 -107 l-103 0 0 183 0 183 83 24 c45 13 105 33 132 45 l50 22 39 -21 c22
-11 52 -34 68 -50z"/>
<path d="M3250 1580 l0 -680 410 0 410 0 0 95 0 95 -305 0 -305 0 0 210 0 210
251 2 251 3 0 93 0 93 -249 2 -248 2 -3 183 -2 182 305 0 305 0 0 95 0 95
-410 0 -410 0 0 -680z"/>
<path d="M5900 1580 l0 -680 410 0 410 0 0 95 0 95 -300 0 -300 0 0 210 0 210
248 2 247 3 3 93 3 92 -251 0 -250 0 0 185 0 185 300 0 300 0 0 95 0 95 -410
0 -410 0 0 -680z"/>
<path d="M1501 2153 c-24 -90 -24 -91 -3 -102 25 -13 37 0 56 64 17 56 12 75
-20 75 -18 0 -25 -8 -33 -37z"/>
<path d="M1577 2090 c-4 -16 6 -28 49 -56 112 -74 205 -213 238 -354 73 -308
-137 -630 -452 -695 -92 -19 -142 -19 -234 0 -225 47 -406 226 -453 450 -8 39
-15 115 -15 170 l0 101 57 12 c66 14 110 42 144 90 26 38 72 202 60 215 -4 4
-24 10 -44 14 -35 5 -36 5 -46 -38 -29 -117 -41 -145 -73 -170 -29 -21 -43
-24 -125 -24 -77 0 -96 3 -120 21 -44 33 -71 80 -78 138 -9 73 -15 80 -60 72
l-37 -7 7 -56 c7 -61 33 -128 67 -175 23 -32 99 -72 159 -83 l36 -7 6 -136 c8
-213 56 -331 187 -463 89 -90 199 -149 322 -174 97 -19 149 -19 246 0 248 50
443 245 498 499 50 232 -50 486 -249 633 -66 48 -82 52 -90 23z"/>
<path d="M1147 1916 c-106 -44 -172 -101 -222 -190 -67 -121 -70 -282 -7 -400
40 -76 120 -152 199 -189 64 -30 75 -32 178 -32 103 0 114 2 178 32 129 61
218 181 240 325 28 179 -71 361 -240 441 -60 28 -79 32 -168 35 -87 2 -108 -1
-158 -22z"/>
<path d="M690 720 l0 -30 3085 0 3085 0 0 30 0 30 -3085 0 -3085 0 0 -30z"/>
<path d="M3485 629 c-4 -6 -5 -12 -2 -15 2 -3 7 2 10 11 7 17 1 20 -8 4z"/>
<path d="M4005 629 c-4 -6 -5 -12 -2 -15 2 -3 7 2 10 11 7 17 1 20 -8 4z"/>
<path d="M1002 578 c-19 -19 -14 -62 13 -98 38 -52 29 -112 -12 -78 -14 11
-16 11 -12 -1 3 -8 13 -19 22 -25 13 -8 20 -6 31 9 23 30 19 58 -13 103 -33
45 -39 87 -10 72 21 -12 32 -1 18 17 -14 16 -22 16 -37 1z"/>
<path d="M3678 513 l-3 -78 -43 73 c-24 39 -44 72 -45 72 -1 0 0 -48 3 -107
l4 -108 6 85 c4 63 7 79 13 62 8 -21 59 -104 77 -125 4 -5 8 36 9 91 2 121
-17 151 -21 35z"/>
<path d="M6836 571 c-23 -25 -20 -42 14 -89 34 -47 37 -64 14 -83 -13 -10 -17
-10 -24 1 -5 8 -12 11 -16 7 -4 -4 0 -15 9 -25 22 -21 48 -7 58 30 5 19 -2 38
-27 79 -29 45 -32 55 -19 62 8 4 19 6 24 2 5 -3 12 -1 16 4 3 6 -3 15 -13 20
-15 8 -23 6 -36 -8z"/>
<path d="M721 554 c-21 -27 -23 -33 -23 -79 0 -56 3 -65 32 -85 40 -28 64 -19
89 33 16 33 18 50 11 80 -17 76 -70 100 -109 51z m78 -18 c29 -47 27 -90 -7
-125 l-28 -29 -27 29 c-17 19 -27 40 -27 60 0 41 27 92 46 85 8 -3 14 -1 14 4
0 17 8 11 29 -24z"/>
<path d="M870 475 c0 -103 0 -105 23 -105 45 0 76 62 50 99 -11 16 -11 25 -2
42 17 32 -6 69 -43 69 l-28 0 0 -105z m58 51 c2 -14 -1 -27 -7 -27 -6 -1 -16
-2 -23 -3 -6 -1 -12 15 -13 35 -1 33 1 36 19 29 13 -4 22 -18 24 -34z m12 -91
c0 -23 -12 -37 -41 -47 -12 -5 -15 2 -15 31 1 60 56 76 56 16z"/>
<path d="M1090 474 l0 -104 40 0 c23 0 40 5 40 11 0 7 -13 10 -32 7 -33 -3
-33 -3 -33 39 0 40 2 43 28 43 35 0 35 18 0 22 -47 5 -40 68 8 68 16 0 29 4
29 9 0 5 -18 9 -40 9 l-40 1 0 -105z"/>
<path d="M1210 473 c0 -56 4 -103 8 -103 4 0 7 20 6 45 -1 39 1 43 15 36 9 -5
23 -25 31 -45 7 -20 17 -36 22 -36 12 0 10 5 -11 43 -17 31 -18 36 -4 50 18
17 20 82 3 102 -6 7 -25 13 -41 13 l-29 -1 0 -104z m65 42 c0 -36 -3 -40 -27
-43 -25 -3 -26 -1 -26 43 0 44 1 46 26 43 24 -3 27 -7 27 -43z"/>
<path d="M1324 548 c7 -18 21 -63 31 -101 10 -37 20 -65 22 -63 5 5 42 137 50
176 4 20 2 22 -6 10 -6 -8 -16 -41 -22 -72 -6 -32 -15 -58 -19 -58 -4 0 -16
30 -27 67 -11 37 -25 69 -31 71 -8 2 -7 -7 2 -30z"/>
<path d="M1540 571 c0 -6 23 -10 50 -9 28 0 50 4 50 9 0 5 -22 9 -50 9 -27 0
-50 -4 -50 -9z"/>
<path d="M1681 559 c-28 -30 -36 -89 -17 -133 32 -77 106 -67 124 16 20 101
-50 178 -107 117z m68 -18 c23 -21 31 -38 31 -63 0 -71 -62 -105 -96 -53 -20
30 -14 103 10 121 9 6 13 14 9 17 -3 4 -2 7 4 7 6 0 25 -13 42 -29z"/>
<path d="M1830 475 c0 -65 4 -105 10 -105 7 0 8 17 4 45 -5 39 -3 44 11 39 9
-4 25 -24 36 -46 11 -22 23 -38 25 -35 3 3 -2 19 -11 36 -14 28 -14 34 0 61
19 37 19 60 -1 88 -10 14 -25 22 -45 22 l-29 0 0 -105z m68 62 c6 -29 -8 -93
-17 -78 -4 7 -14 11 -22 9 -10 -2 -14 9 -15 37 -1 22 1 44 3 48 9 15 48 2 51
-16z"/>
<path d="M1951 475 c1 -58 5 -105 10 -105 5 0 9 47 9 105 0 66 -4 105 -10 105
-7 0 -10 -38 -9 -105z"/>
<path d="M2036 561 c-24 -26 -36 -86 -26 -123 10 -32 45 -68 67 -68 19 0 60
46 67 76 8 31 -9 98 -30 119 -21 21 -57 19 -78 -4z m81 -28 c23 -31 16 -90
-15 -124 l-28 -31 -27 32 c-49 57 -28 156 31 145 15 -2 33 -12 39 -22z"/>
<path d="M2240 475 c0 -104 0 -105 24 -105 62 0 99 86 70 160 -11 28 -21 39
-31 36 -8 -3 -11 -1 -8 4 4 6 -7 10 -24 10 l-31 0 0 -105z m81 53 c5 -7 9 -30
9 -50 0 -43 -36 -93 -60 -84 -13 6 -17 68 -10 168 0 10 51 -18 61 -34z"/>
<path d="M2380 475 l0 -105 40 0 c23 0 40 5 40 11 0 7 -14 10 -35 7 l-35 -4 0
46 c0 46 0 46 30 42 17 -2 30 0 30 6 0 6 -12 12 -27 14 -23 2 -29 8 -31 36 -3
31 -2 32 32 32 20 0 36 5 36 10 0 6 -18 10 -40 10 l-40 0 0 -105z"/>
<path d="M2560 475 l0 -105 40 0 c28 0 40 4 40 14 0 11 -8 12 -35 6 l-35 -8 0
44 c0 42 1 44 31 44 20 0 29 4 26 13 -2 7 -15 11 -30 9 -25 -3 -27 -1 -27 32
0 34 2 36 35 36 19 0 35 5 35 10 0 6 -18 10 -40 10 l-40 0 0 -105z"/>
<path d="M2681 475 c-2 -99 -1 -105 18 -105 11 0 32 10 47 23 59 51 34 187
-35 187 l-29 0 -1 -105z m62 67 c31 -34 26 -101 -9 -139 -14 -15 -22 -21 -18
-13 7 13 5 13 -9 1 -16 -12 -17 -7 -17 71 0 47 3 88 7 91 11 12 29 8 46 -11z"/>
<path d="M2810 508 c0 -75 12 -113 42 -132 14 -8 22 -6 37 9 16 16 21 38 24
108 3 48 1 87 -4 87 -5 0 -9 -35 -9 -77 0 -82 -4 -96 -31 -105 -29 -11 -39 13
-39 99 0 49 -4 83 -10 83 -6 0 -10 -31 -10 -72z"/>
<path d="M2970 548 c-29 -48 -27 -109 6 -147 27 -33 52 -39 72 -19 15 15 16
42 2 33 -6 -4 -8 -10 -5 -15 3 -4 -5 -6 -17 -2 -16 4 -19 2 -13 -9 5 -8 -1 -6
-12 4 -36 31 -48 72 -34 118 7 23 18 39 27 39 8 0 13 4 10 8 -3 5 1 9 9 9 8 0
12 -4 9 -9 -3 -4 2 -8 11 -8 27 0 11 25 -18 28 -21 3 -31 -4 -47 -30z"/>
<path d="M3137 570 c-17 -43 -54 -200 -47 -200 4 0 11 11 14 25 5 20 13 25 36
25 23 0 31 -5 36 -25 3 -14 10 -25 16 -25 5 0 7 8 4 18 -28 95 -46 160 -49
177 -3 16 -5 17 -10 5z m17 -82 c10 -38 7 -45 -20 -51 -20 -4 -24 -1 -18 12 3
9 9 26 11 39 3 12 9 22 13 22 4 0 10 -10 14 -22z"/>
<path d="M3240 552 c-14 -17 -20 -40 -20 -77 0 -43 5 -57 26 -79 37 -36 62
-33 78 9 6 16 5 18 -5 8 -23 -23 -57 -15 -74 17 -19 37 -19 63 1 102 13 26 20
29 44 24 22 -4 28 -2 24 8 -9 22 -53 16 -74 -12z"/>
<path d="M3364 475 c0 -60 1 -84 3 -52 2 32 2 81 0 110 -2 29 -3 3 -3 -58z"/>
<path d="M3454 572 c-44 -30 -57 -108 -26 -161 29 -52 75 -53 105 -2 46 78
-16 207 -79 163z m75 -65 c12 -36 7 -61 -17 -89 -22 -26 -47 -22 -72 9 -25 33
-21 88 10 114 11 9 16 20 12 24 -4 4 7 0 25 -9 20 -10 35 -28 42 -49z"/>
<path d="M3800 472 c4 -98 5 -101 8 -37 l4 70 25 -55 24 -55 17 30 c8 17 22
46 29 65 12 33 12 31 8 -37 -2 -40 0 -75 6 -78 5 -4 9 35 8 97 l0 103 -31 -67
c-29 -63 -48 -85 -48 -55 -1 6 -9 30 -20 52 -11 22 -19 45 -20 52 0 6 -3 14
-7 16 -5 3 -6 -43 -3 -101z"/>
<path d="M3970 475 l0 -105 40 0 c25 0 40 5 40 13 0 7 -13 12 -31 12 -29 0
-31 3 -34 38 -2 35 0 37 27 37 19 0 28 4 26 12 -3 7 -15 13 -28 13 -24 0 -26
7 -21 55 1 6 15 10 31 10 17 0 30 5 30 10 0 6 -18 10 -40 10 l-40 0 0 -105z"/>
<path d="M4090 475 c0 -104 0 -105 24 -105 15 0 34 12 50 31 53 63 24 179 -45
179 l-29 0 0 -105z m34 83 c-5 -7 -2 -9 9 -5 22 8 51 -56 43 -96 -8 -41 -32
-66 -57 -60 -17 5 -19 14 -19 77 0 43 5 77 12 84 15 15 21 15 12 0z"/>
<path d="M4226 479 c1 -55 5 -103 8 -106 3 -4 6 42 6 100 0 59 -3 107 -8 107
-4 0 -7 -45 -6 -101z"/>
<path d="M4313 572 c-15 -9 -40 -71 -38 -92 1 -8 3 -24 3 -36 2 -26 42 -71 62
-69 8 1 20 3 26 3 7 1 14 12 17 24 5 19 4 20 -9 6 -34 -34 -84 6 -84 68 0 47
37 98 61 83 21 -13 29 -11 23 6 -6 16 -41 20 -61 7z"/>
<path d="M4447 514 c-15 -59 -15 -67 -2 -81 9 -8 22 -12 30 -9 14 5 33 -17 33
-39 0 -5 5 -11 10 -13 5 -1 -1 35 -14 81 -38 137 -37 136 -57 61z m33 -16 c0
-7 3 -23 6 -35 5 -18 2 -23 -13 -23 -28 0 -33 8 -21 41 10 29 28 40 28 17z"/>
<path d="M4636 533 c16 -33 23 -66 24 -105 0 -81 17 -73 19 10 1 53 7 75 27
106 14 21 20 36 13 34 -7 -2 -20 -19 -28 -36 -9 -17 -19 -32 -22 -32 -3 0 -13
16 -22 35 -9 19 -21 35 -25 35 -5 0 1 -21 14 -47z"/>
<path d="M4820 473 c0 -100 1 -103 23 -103 67 1 101 105 58 177 -16 25 -26 32
-50 31 l-31 -1 0 -104z m59 77 c41 -22 33 -150 -10 -150 -10 0 -19 -6 -19 -12
0 -9 -4 -8 -10 2 -10 14 -11 145 -3 163 6 10 21 9 42 -3z"/>
<path d="M4955 574 c6 -2 8 -33 5 -76 -3 -40 -4 -85 -2 -100 3 -25 7 -28 43
-28 25 0 39 5 39 13 0 9 -11 12 -35 9 l-35 -4 0 44 c0 44 1 44 30 40 18 -3 30
0 30 7 0 6 -7 12 -15 12 -8 1 -21 2 -27 3 -7 0 -14 16 -16 34 -3 31 -2 32 32
32 20 0 36 5 36 10 0 6 -21 10 -47 9 -27 0 -43 -2 -38 -5z"/>
<path d="M5075 481 c0 -55 3 -103 8 -107 4 -4 7 12 7 35 0 52 16 51 45 -2 26
-49 41 -48 16 1 -17 33 -17 40 -5 57 18 24 18 74 0 98 -7 9 -26 17 -42 17
l-30 0 1 -99z m64 65 c7 -8 11 -27 9 -43 -2 -22 -9 -29 -30 -31 -27 -3 -28 -2
-28 42 0 38 3 46 19 46 10 0 24 -6 30 -14z"/>
<path d="M5200 475 l0 -105 40 0 c25 0 40 5 40 13 0 7 -13 12 -32 12 -31 0
-33 2 -36 38 -3 35 -2 37 27 37 17 0 31 5 31 10 0 6 -13 10 -30 10 -28 0 -30
3 -30 35 0 33 2 35 35 35 19 0 35 5 35 10 0 6 -18 10 -40 10 l-40 0 0 -105z"/>
<path d="M5331 554 c-12 -15 -21 -29 -22 -33 0 -3 -2 -19 -4 -35 -9 -65 52
-137 90 -106 8 7 15 17 15 22 0 6 -6 6 -14 -1 -19 -16 -38 -10 -58 19 -36 51
-14 135 35 134 16 0 27 5 27 13 0 23 -48 14 -69 -13z"/>
<path d="M5442 531 c2 -27 6 -47 10 -45 5 3 8 0 8 -5 0 -6 -5 -11 -10 -11 -6
0 -9 -22 -8 -50 1 -27 6 -50 11 -50 5 0 7 21 6 48 l-3 47 36 3 37 3 4 -53 c2
-29 3 -3 3 57 0 61 -1 87 -3 60 l-4 -51 -34 4 c-34 4 -35 5 -35 48 0 24 -4 44
-10 44 -5 0 -9 -22 -8 -49z"/>
<path d="M5600 548 c-42 -69 -11 -176 51 -178 28 0 61 46 66 94 11 98 -72 157
-117 84z m64 10 c-3 -4 0 -8 6 -8 6 0 17 -14 24 -32 14 -32 8 -77 -13 -102 -6
-7 -8 -16 -4 -20 4 -4 -1 -4 -11 0 -14 5 -17 4 -11 -5 4 -8 -3 -6 -18 3 -49
33 -58 99 -20 150 15 20 58 32 47 14z"/>
<path d="M5757 574 c-16 -16 -5 -62 22 -100 26 -35 28 -42 17 -63 -12 -21 -14
-22 -29 -7 -19 20 -35 2 -17 -19 18 -22 37 -18 56 10 20 31 13 63 -22 104 -27
32 -26 64 0 59 8 -2 16 2 18 7 4 12 -35 19 -45 9z"/>
<path d="M5918 545 c2 -19 6 -35 8 -35 2 0 4 16 4 35 0 19 -4 35 -8 35 -4 0
-6 -16 -4 -35z"/>
<path d="M6000 534 l0 -46 -40 4 c-31 3 -40 0 -41 -12 0 -8 -2 -34 -4 -57 -2
-24 1 -46 6 -49 5 -3 9 18 9 46 l0 51 33 -3 c30 -3 32 -5 38 -53 4 -36 6 -21
7 58 1 59 0 107 -3 107 -3 0 -5 -21 -5 -46z"/>
<path d="M6050 505 c0 -73 15 -129 31 -119 5 3 9 0 9 -5 0 -18 26 -13 44 8 14
15 18 39 19 105 1 47 -1 86 -5 86 -4 0 -9 -39 -10 -86 -2 -68 -7 -89 -20 -97
-12 -8 -21 -7 -32 2 -12 10 -16 33 -16 97 0 49 -4 84 -10 84 -6 0 -10 -32 -10
-75z"/>
<path d="M6388 477 c-26 -96 -30 -145 -7 -80 8 24 15 30 30 26 10 -3 19 0 19
6 0 6 -9 11 -19 11 -17 0 -18 3 -8 35 12 41 26 46 28 10 2 -45 27 -115 40
-115 11 0 13 -9 -16 85 -14 44 -25 88 -25 97 0 9 -4 19 -8 22 -4 2 -20 -41
-34 -97z"/>
<path d="M6505 571 c4 -7 7 -55 6 -107 -1 -52 2 -94 6 -94 4 0 7 34 6 77 -2
42 0 73 4 69 4 -3 26 -39 50 -79 l43 -72 0 108 c0 72 -4 107 -11 107 -8 0 -10
-23 -6 -75 3 -41 2 -77 -2 -80 -4 -2 -8 1 -8 8 0 15 -72 135 -86 144 -6 4 -7
1 -2 -6z"/>
<path d="M6694 572 c-16 -10 -30 -41 -38 -81 -11 -60 38 -131 82 -117 43 14
68 117 41 169 -15 27 -28 37 -54 37 -11 0 -25 -4 -31 -8z m41 -16 c18 7 45
-45 45 -85 0 -21 -10 -42 -31 -63 -17 -18 -27 -27 -23 -19 4 9 2 12 -7 9 -22
-7 -49 36 -49 80 0 39 39 109 48 84 2 -6 9 -9 17 -6z"/>
<path d="M1478 558 c-4 -10 1 -38 12 -63 15 -34 16 -47 7 -49 -6 -2 -20 -7
-29 -10 -15 -4 -16 -1 -8 20 10 26 14 71 5 63 -2 -3 -11 -29 -19 -59 -8 -30
-17 -63 -21 -72 -4 -10 -3 -18 3 -18 5 0 13 11 16 24 4 17 14 25 36 28 28 4
32 1 37 -24 3 -15 10 -28 14 -28 11 0 5 30 -21 110 -10 30 -20 64 -22 75 -3
18 -4 18 -10 3z"/>
<path d="M6191 553 c-1 -13 4 -23 10 -23 8 0 8 -4 2 -12 -15 -19 -17 -148 -3
-148 8 0 11 22 9 65 -1 36 1 68 5 72 4 5 7 4 5 -2 -3 -15 22 -75 32 -75 4 0 6
-7 3 -15 -4 -8 -2 -15 2 -15 5 0 17 18 26 40 9 22 20 40 25 40 4 0 6 -25 5
-55 -3 -36 0 -55 7 -55 8 0 11 33 9 103 l-2 102 -30 -67 c-16 -38 -32 -68 -35
-68 -3 1 -20 31 -38 68 -21 44 -32 59 -32 45z"/>
<path d="M1588 548 c-5 -45 -2 -178 4 -178 4 0 8 43 8 95 0 52 -2 95 -5 95 -3
0 -6 -6 -7 -12z"/>
<path d="M4417 406 c-5 -15 -6 -31 -3 -34 8 -8 18 25 14 45 -3 13 -6 10 -11
-11z"/>
</g>
</svg>
